# xmcd CD database file
#
# Track frame offsets:
#	150
#	20362
#	35502
#
# Disc length: 738 seconds
#
# Revision: 0
# Processed by: cddbd v1.5PL3 Copyright (c) Steve Scherf et al.
# Submitted via: CDex 1.50
#
DISCID=1a02e003
DTITLE=Retro G-Style - STAR
DYEAR=2004
DGENRE=JPop
TTITLE0=STAR
TTITLE1=Party 3 -D.I's Break of Dawn mix-
TTITLE2=STAR (TV-MIX)
EXTD=YEAR: 2004
EXTT0=
EXTT1=
EXTT2=
PLAYORDER=
